<svg width="116" height="44" viewBox="0 0 116 44" fill="none" xmlns="http://www.w3.org/2000/svg">
<path d="M1.98779 23.1187V6.41357H9.24415C10.7449 6.41357 12.0381 6.66018 13.1238 7.15337C14.2095 7.63066 15.0477 8.32273 15.6384 9.22957C16.2291 10.1364 16.5245 11.2183 16.5245 12.4751C16.5245 13.7161 16.2291 14.79 15.6384 15.6968C15.0477 16.6037 14.2095 17.3037 13.1238 17.7969C12.0381 18.2742 10.7449 18.5128 9.24415 18.5128H4.14315L5.86743 16.7707V23.1187H1.98779ZM5.86743 17.2003L4.14315 15.3627H9.02862C10.226 15.3627 11.1201 15.1082 11.7108 14.5991C12.3015 14.0899 12.5969 13.382 12.5969 12.4751C12.5969 11.5524 12.3015 10.8365 11.7108 10.3273C11.1201 9.8182 10.226 9.56368 9.02862 9.56368H4.14315L5.86743 7.72612V17.2003ZM25.1382 23.3096C23.7652 23.3096 22.5438 23.0232 21.4741 22.4505C20.4204 21.8777 19.5822 21.0982 18.9596 20.1117C18.3528 19.1094 18.0495 17.9719 18.0495 16.6991C18.0495 15.4105 18.3528 14.2729 18.9596 13.2865C19.5822 12.2842 20.4204 11.5047 21.4741 10.9478C22.5438 10.3751 23.7652 10.0887 25.1382 10.0887C26.4953 10.0887 27.7087 10.3751 28.7784 10.9478C29.8481 11.5047 30.6863 12.2762 31.293 13.2627C31.8996 14.2491 32.203 15.3946 32.203 16.6991C32.203 17.9719 31.8996 19.1094 31.293 20.1117C30.6863 21.0982 29.8481 21.8777 28.7784 22.4505C27.7087 23.0232 26.4953 23.3096 25.1382 23.3096ZM25.1382 20.2549C25.7609 20.2549 26.3197 20.1117 26.8146 19.8254C27.3095 19.539 27.7007 19.1333 27.9881 18.6083C28.2755 18.0674 28.4192 17.431 28.4192 16.6991C28.4192 15.9514 28.2755 15.315 27.9881 14.79C27.7007 14.265 27.3095 13.8593 26.8146 13.5729C26.3197 13.2865 25.7609 13.1433 25.1382 13.1433C24.5156 13.1433 23.9568 13.2865 23.4619 13.5729C22.9669 13.8593 22.5678 14.265 22.2644 14.79C21.9771 15.315 21.8334 15.9514 21.8334 16.6991C21.8334 17.431 21.9771 18.0674 22.2644 18.6083C22.5678 19.1333 22.9669 19.539 23.4619 19.8254C23.9568 20.1117 24.5156 20.2549 25.1382 20.2549ZM37.295 23.1187L32.6491 10.2796H36.1695L40.0252 21.3288H38.3488L42.3721 10.2796H45.5333L49.4369 21.3288H47.7605L51.7359 10.2796H55.0408L50.3709 23.1187H46.7547L43.33 13.6445H44.4317L40.8873 23.1187H37.295ZM62.821 23.3096C61.3522 23.3096 60.059 23.0232 58.9414 22.4505C57.8398 21.8777 56.9856 21.0982 56.3789 20.1117C55.7722 19.1094 55.4689 17.9719 55.4689 16.6991C55.4689 15.4105 55.7642 14.2729 56.355 13.2865C56.9616 12.2842 57.7839 11.5047 58.8217 10.9478C59.8594 10.3751 61.0328 10.0887 62.3421 10.0887C63.6033 10.0887 64.7369 10.3592 65.7427 10.9001C66.7645 11.4251 67.5707 12.1888 68.1615 13.1911C68.7522 14.1775 69.0476 15.3627 69.0476 16.7469C69.0476 16.89 69.0396 17.0571 69.0237 17.248C69.0076 17.423 68.9917 17.5901 68.9758 17.7492H58.5103V15.5775H67.0119L65.5751 16.2218C65.5751 15.5536 65.4393 14.9729 65.168 14.4797C64.8965 13.9866 64.5214 13.6047 64.0424 13.3343C63.5634 13.0479 63.0046 12.9047 62.366 12.9047C61.7273 12.9047 61.1606 13.0479 60.6657 13.3343C60.1867 13.6047 59.8115 13.9945 59.5401 14.5036C59.2687 14.9968 59.133 15.5855 59.133 16.2696V16.8423C59.133 17.5424 59.2846 18.1628 59.588 18.7037C59.9073 19.2288 60.3463 19.6345 60.9052 19.9208C61.4799 20.1913 62.1505 20.3265 62.9168 20.3265C63.6033 20.3265 64.202 20.2231 64.713 20.0163C65.2398 19.8095 65.7188 19.4992 66.1499 19.0856L68.1376 21.2334C67.5468 21.9016 66.8044 22.4186 65.9104 22.7846C65.0163 23.1345 63.9865 23.3096 62.821 23.3096ZM71.5349 23.1187V10.2796H75.103V13.907L74.6003 12.857C74.9832 11.9501 75.5984 11.266 76.4441 10.8046C77.2905 10.3273 78.3203 10.0887 79.5334 10.0887V13.5252C79.374 13.5093 79.2303 13.5013 79.1023 13.5013C78.9751 13.4854 78.8389 13.4774 78.6952 13.4774C77.6737 13.4774 76.8437 13.7718 76.2046 14.3604C75.5819 14.9332 75.2706 15.832 75.2706 17.0571V23.1187H71.5349Z" fill="black"/>
<path d="M85.4442 19.3004L85.2287 14.8377L93.2514 6.41361H97.5621L90.3297 14.1695L88.1743 16.4605L85.4442 19.3004ZM81.9717 23.1187V6.41361H85.8274V23.1187H81.9717ZM93.443 23.1187L87.4798 15.84L90.0183 13.0956L97.9692 23.1187H93.443ZM99.436 23.1187V10.2796H103.172V23.1187H99.436ZM101.304 8.48981C100.617 8.48981 100.059 8.29091 99.6276 7.8932C99.1966 7.49548 98.981 7.00226 98.981 6.41361C98.981 5.82495 99.1966 5.33175 99.6276 4.93401C100.059 4.53628 100.617 4.3374 101.304 4.3374C101.99 4.3374 102.549 4.52832 102.98 4.91015C103.411 5.27607 103.627 5.75336 103.627 6.34201C103.627 6.96249 103.411 7.47952 102.98 7.8932C102.565 8.29091 102.006 8.48981 101.304 8.48981ZM111.908 23.3096C110.391 23.3096 109.209 22.9278 108.364 22.1641C107.517 21.3846 107.094 20.2311 107.094 18.7038V7.43978H110.83V18.656C110.83 19.1969 110.974 19.6186 111.261 19.9209C111.549 20.2072 111.939 20.3504 112.435 20.3504C113.025 20.3504 113.528 20.1913 113.944 19.8731L114.949 22.4982C114.566 22.7687 114.103 22.9755 113.56 23.1187C113.033 23.246 112.483 23.3096 111.908 23.3096ZM105.107 13.4297V10.566H114.039V13.4297H105.107Z" fill="#01A7C2"/>
<path d="M5.11329 36.9253C4.49063 36.9253 3.89192 36.8259 3.31716 36.627C2.75039 36.4202 2.31133 36.1577 2 35.8395L2.34725 35.1593C2.64262 35.4457 3.03777 35.6883 3.5327 35.8872C4.03561 36.0781 4.56248 36.1736 5.11329 36.1736C5.64016 36.1736 6.06724 36.1099 6.39453 35.9826C6.72981 35.8474 6.97328 35.6685 7.12495 35.4457C7.28461 35.2229 7.36444 34.9764 7.36444 34.7059C7.36444 34.3798 7.26865 34.1173 7.07706 33.9184C6.89346 33.7195 6.64998 33.5644 6.34663 33.453C6.04329 33.3337 5.70801 33.2303 5.3408 33.1428C4.97359 33.0553 4.60639 32.9638 4.23917 32.8683C3.87196 32.7649 3.5327 32.6297 3.22137 32.4626C2.91802 32.2956 2.67055 32.0769 2.47897 31.8064C2.29537 31.528 2.20356 31.166 2.20356 30.7205C2.20356 30.3069 2.31133 29.9291 2.52686 29.587C2.75039 29.237 3.08965 28.9585 3.54467 28.7517C3.99969 28.537 4.58244 28.4296 5.2929 28.4296C5.76389 28.4296 6.23088 28.4972 6.69388 28.6324C7.15689 28.7597 7.55603 28.9387 7.8913 29.1694L7.59195 29.8734C7.23272 29.6347 6.84955 29.4597 6.44243 29.3483C6.04329 29.237 5.65612 29.1813 5.28093 29.1813C4.77801 29.1813 4.3629 29.2489 4.03561 29.3841C3.70832 29.5193 3.46484 29.7024 3.30519 29.933C3.15351 30.1558 3.07768 30.4103 3.07768 30.6967C3.07768 31.0228 3.16948 31.2853 3.35308 31.4842C3.54467 31.6831 3.79214 31.8382 4.09548 31.9496C4.40681 32.0609 4.74608 32.1604 5.11329 32.2479C5.4805 32.3353 5.84372 32.4308 6.20294 32.5342C6.57015 32.6377 6.90543 32.7729 7.20877 32.9399C7.5201 33.099 7.76757 33.3138 7.95117 33.5843C8.14276 33.8548 8.23855 34.2087 8.23855 34.6462C8.23855 35.0519 8.1268 35.4298 7.90328 35.7798C7.67976 36.1219 7.3365 36.4003 6.8735 36.6151C6.41848 36.8219 5.83174 36.9253 5.11329 36.9253ZM13.2346 36.9134C12.6918 36.9134 12.2008 36.7901 11.7618 36.5435C11.3227 36.2889 10.9715 35.9269 10.7081 35.4576C10.4526 34.9803 10.3249 34.3996 10.3249 33.7155C10.3249 33.0314 10.4526 32.4547 10.7081 31.9854C10.9635 31.5081 11.3108 31.1461 11.7498 30.8995C12.1888 30.6529 12.6838 30.5296 13.2346 30.5296C13.8333 30.5296 14.3681 30.6648 14.8392 30.9353C15.3181 31.1978 15.6933 31.5717 15.9648 32.057C16.2361 32.5342 16.3719 33.0871 16.3719 33.7155C16.3719 34.3519 16.2361 34.9087 15.9648 35.386C15.6933 35.8633 15.3181 36.2372 14.8392 36.5077C14.3681 36.7782 13.8333 36.9134 13.2346 36.9134ZM9.98963 39.1685V30.5893H10.8039V32.4746L10.7201 33.7275L10.8398 34.9923V39.1685H9.98963ZM13.1748 36.1616C13.6218 36.1616 14.0209 36.0622 14.3722 35.8633C14.7234 35.6565 15.0028 35.3702 15.2104 35.0042C15.4179 34.6304 15.5217 34.2008 15.5217 33.7155C15.5217 33.2303 15.4179 32.8047 15.2104 32.4388C15.0028 32.0728 14.7234 31.7865 14.3722 31.5797C14.0209 31.3729 13.6218 31.2694 13.1748 31.2694C12.7277 31.2694 12.3246 31.3729 11.9653 31.5797C11.6141 31.7865 11.3347 32.0728 11.1272 32.4388C10.9276 32.8047 10.8278 33.2303 10.8278 33.7155C10.8278 34.2008 10.9276 34.6304 11.1272 35.0042C11.3347 35.3702 11.6141 35.6565 11.9653 35.8633C12.3246 36.0622 12.7277 36.1616 13.1748 36.1616ZM20.6674 36.9134C20.0607 36.9134 19.5139 36.7782 19.0269 36.5077C18.548 36.2293 18.1688 35.8514 17.8894 35.3741C17.61 34.8888 17.4703 34.336 17.4703 33.7155C17.4703 33.0871 17.61 32.5342 17.8894 32.057C18.1688 31.5797 18.548 31.2058 19.0269 30.9353C19.5059 30.6648 20.0527 30.5296 20.6674 30.5296C21.2901 30.5296 21.8409 30.6648 22.3198 30.9353C22.8068 31.2058 23.1859 31.5797 23.4574 32.057C23.7368 32.5342 23.8765 33.0871 23.8765 33.7155C23.8765 34.336 23.7368 34.8888 23.4574 35.3741C23.1859 35.8514 22.8068 36.2293 22.3198 36.5077C21.8329 36.7782 21.282 36.9134 20.6674 36.9134ZM20.6674 36.1616C21.1224 36.1616 21.5256 36.0622 21.8768 35.8633C22.228 35.6565 22.5034 35.3702 22.703 35.0042C22.9105 34.6304 23.0143 34.2008 23.0143 33.7155C23.0143 33.2224 22.9105 32.7928 22.703 32.4268C22.5034 32.0609 22.228 31.7786 21.8768 31.5797C21.5256 31.3729 21.1264 31.2694 20.6794 31.2694C20.2324 31.2694 19.8332 31.3729 19.4819 31.5797C19.1307 31.7786 18.8513 32.0609 18.6438 32.4268C18.4362 32.7928 18.3324 33.2224 18.3324 33.7155C18.3324 34.2008 18.4362 34.6304 18.6438 35.0042C18.8513 35.3702 19.1307 35.6565 19.4819 35.8633C19.8332 36.0622 20.2283 36.1616 20.6674 36.1616ZM25.6122 36.8537V30.5893H26.4265V32.2956L26.3426 31.9973C26.5182 31.52 26.8136 31.1581 27.2287 30.9115C27.6438 30.6569 28.1587 30.5296 28.7734 30.5296V31.353C28.7414 31.353 28.7095 31.353 28.6776 31.353C28.6457 31.345 28.6137 31.341 28.5818 31.341C27.9192 31.341 27.4003 31.5439 27.0252 31.9496C26.6499 32.3473 26.4624 32.9161 26.4624 33.6559V36.8537H25.6122ZM32.5813 36.9134C31.9906 36.9134 31.5356 36.7543 31.2163 36.4361C30.8969 36.1179 30.7373 35.6685 30.7373 35.0877V29.2052H31.5875V35.04C31.5875 35.4059 31.6793 35.6883 31.8629 35.8872C32.0545 36.0861 32.3259 36.1855 32.6771 36.1855C33.0523 36.1855 33.3636 36.0781 33.6111 35.8633L33.9105 36.4719C33.7428 36.623 33.5393 36.7344 33.2998 36.806C33.0683 36.8776 32.8288 36.9134 32.5813 36.9134ZM29.6117 31.2933V30.5893H33.5034V31.2933H29.6117ZM37.4305 36.8537L41.2623 28.5012H42.1364L45.9681 36.8537H45.0341L41.5137 29.0142H41.8729L38.3525 36.8537H37.4305ZM38.9393 34.6224L39.2027 33.9064H44.0762L44.3396 34.6224H38.9393ZM50.4201 36.9134C49.8772 36.9134 49.3863 36.7901 48.9473 36.5435C48.5082 36.2889 48.157 35.9269 47.8936 35.4576C47.6381 34.9803 47.5104 34.3996 47.5104 33.7155C47.5104 33.0314 47.6381 32.4547 47.8936 31.9854C48.149 31.5081 48.4962 31.1461 48.9353 30.8995C49.3743 30.6529 49.8693 30.5296 50.4201 30.5296C51.0188 30.5296 51.5536 30.6648 52.0247 30.9353C52.5036 31.1978 52.8788 31.5717 53.1502 32.057C53.4216 32.5342 53.5574 33.0871 53.5574 33.7155C53.5574 34.3519 53.4216 34.9087 53.1502 35.386C52.8788 35.8633 52.5036 36.2372 52.0247 36.5077C51.5536 36.7782 51.0188 36.9134 50.4201 36.9134ZM47.1751 39.1685V30.5893H47.9894V32.4746L47.9055 33.7275L48.0253 34.9923V39.1685H47.1751ZM50.3603 36.1616C50.8073 36.1616 51.2064 36.0622 51.5577 35.8633C51.9089 35.6565 52.1883 35.3702 52.3959 35.0042C52.6034 34.6304 52.7072 34.2008 52.7072 33.7155C52.7072 33.2303 52.6034 32.8047 52.3959 32.4388C52.1883 32.0728 51.9089 31.7865 51.5577 31.5797C51.2064 31.3729 50.8073 31.2694 50.3603 31.2694C49.9132 31.2694 49.5101 31.3729 49.1508 31.5797C48.7996 31.7865 48.5202 32.0728 48.3127 32.4388C48.1131 32.8047 48.0133 33.2303 48.0133 33.7155C48.0133 34.2008 48.1131 34.6304 48.3127 35.0042C48.5202 35.3702 48.7996 35.6565 49.1508 35.8633C49.5101 36.0622 49.9132 36.1616 50.3603 36.1616ZM58.5354 36.9134C57.9926 36.9134 57.5017 36.7901 57.0626 36.5435C56.6235 36.2889 56.2723 35.9269 56.0089 35.4576C55.7534 34.9803 55.6257 34.3996 55.6257 33.7155C55.6257 33.0314 55.7534 32.4547 56.0089 31.9854C56.2643 31.5081 56.6115 31.1461 57.0506 30.8995C57.4897 30.6529 57.9846 30.5296 58.5354 30.5296C59.1341 30.5296 59.669 30.6648 60.1399 30.9353C60.6189 31.1978 60.9941 31.5717 61.2655 32.057C61.537 32.5342 61.6726 33.0871 61.6726 33.7155C61.6726 34.3519 61.537 34.9087 61.2655 35.386C60.9941 35.8633 60.6189 36.2372 60.1399 36.5077C59.669 36.7782 59.1341 36.9134 58.5354 36.9134ZM55.2904 39.1685V30.5893H56.1046V32.4746L56.0208 33.7275L56.1406 34.9923V39.1685H55.2904ZM58.4755 36.1616C58.9225 36.1616 59.3217 36.0622 59.673 35.8633C60.0242 35.6565 60.3036 35.3702 60.5111 35.0042C60.7187 34.6304 60.8225 34.2008 60.8225 33.7155C60.8225 33.2303 60.7187 32.8047 60.5111 32.4388C60.3036 32.0728 60.0242 31.7865 59.673 31.5797C59.3217 31.3729 58.9225 31.2694 58.4755 31.2694C58.0285 31.2694 57.6254 31.3729 57.2661 31.5797C56.9149 31.7865 56.6355 32.0728 56.4279 32.4388C56.2284 32.8047 56.1286 33.2303 56.1286 33.7155C56.1286 34.2008 56.2284 34.6304 56.4279 35.0042C56.6355 35.3702 56.9149 35.6565 57.2661 35.8633C57.6254 36.0622 58.0285 36.1616 58.4755 36.1616ZM67.3102 36.8537V35.4696L67.2742 35.2428V32.928C67.2742 32.395 67.1226 31.9854 66.8192 31.699C66.5238 31.4126 66.0808 31.2694 65.4901 31.2694C65.083 31.2694 64.6957 31.3371 64.3286 31.4723C63.9614 31.6075 63.65 31.7865 63.3946 32.0092L63.0114 31.3768C63.3307 31.1063 63.7139 30.8995 64.161 30.7563C64.608 30.6052 65.0789 30.5296 65.5739 30.5296C66.3882 30.5296 67.0148 30.7325 67.4539 31.1382C67.9009 31.5359 68.1244 32.1444 68.1244 32.9638V36.8537H67.3102ZM65.1428 36.9134C64.6718 36.9134 64.2607 36.8378 63.9095 36.6866C63.5662 36.5276 63.3028 36.3128 63.1192 36.0423C62.9356 35.7639 62.8438 35.4457 62.8438 35.0877C62.8438 34.7616 62.9196 34.4673 63.0713 34.2047C63.2309 33.9343 63.4864 33.7195 63.8377 33.5604C64.1969 33.3934 64.6758 33.3098 65.2746 33.3098H67.4419V33.9422H65.2985C64.6918 33.9422 64.2687 34.0496 64.0292 34.2644C63.7977 34.4792 63.682 34.7456 63.682 35.0639C63.682 35.4218 63.8216 35.7082 64.1011 35.923C64.3805 36.1378 64.7716 36.2452 65.2746 36.2452C65.7535 36.2452 66.1646 36.1378 66.5079 35.923C66.8591 35.7002 67.1145 35.3821 67.2742 34.9684L67.4658 35.5531C67.3061 35.9668 67.0268 36.2968 66.6276 36.5435C66.2365 36.7901 65.7416 36.9134 65.1428 36.9134ZM70.4336 36.8537V30.5893H71.2478V32.2956L71.164 31.9973C71.3396 31.52 71.635 31.1581 72.0501 30.9115C72.4651 30.6569 72.98 30.5296 73.5947 30.5296V31.353C73.5628 31.353 73.5308 31.353 73.499 31.353C73.467 31.345 73.435 31.341 73.4032 31.341C72.7405 31.341 72.2217 31.5439 71.8465 31.9496C71.4713 32.3473 71.2837 32.9161 71.2837 33.6559V36.8537H70.4336ZM77.7577 36.9134C77.1029 36.9134 76.5281 36.7782 76.0335 36.5077C75.5386 36.2293 75.1515 35.8514 74.872 35.3741C74.5927 34.8888 74.4529 34.336 74.4529 33.7155C74.4529 33.0951 74.5846 32.5462 74.8481 32.0689C75.1195 31.5916 75.4867 31.2177 75.9497 30.9473C76.4204 30.6689 76.9472 30.5296 77.5302 30.5296C78.1207 30.5296 78.6438 30.6648 79.0988 30.9353C79.5621 31.1978 79.9251 31.5717 80.1885 32.057C80.4519 32.5342 80.5836 33.0871 80.5836 33.7155C80.5836 33.7553 80.5799 33.7991 80.5717 33.8468C80.5717 33.8865 80.5717 33.9303 80.5717 33.978H75.0995V33.3456H80.1166L79.7814 33.5962C79.7814 33.1428 79.6818 32.741 79.482 32.3911C79.2904 32.0331 79.027 31.7547 78.6917 31.5558C78.3564 31.3569 77.9695 31.2575 77.5302 31.2575C77.0991 31.2575 76.7122 31.3569 76.3687 31.5558C76.0256 31.7547 75.7581 32.0331 75.5665 32.3911C75.3749 32.749 75.2792 33.1587 75.2792 33.6201V33.7513C75.2792 34.2286 75.3829 34.6502 75.5905 35.0161C75.806 35.3741 76.1014 35.6565 76.4765 35.8633C76.8597 36.0622 77.2945 36.1616 77.7817 36.1616C78.1649 36.1616 78.5203 36.094 78.8474 35.9588C79.1827 35.8236 79.47 35.6167 79.7095 35.3383L80.1885 35.8872C79.9093 36.2213 79.5576 36.4758 79.1348 36.6508C78.7194 36.8259 78.2607 36.9134 77.7577 36.9134ZM82.3139 36.8537V28H83.1641V36.8537H82.3139Z" fill="black"/>
</svg>
