<svg width="104" height="18" viewBox="0 0 104 18" fill="none" xmlns="http://www.w3.org/2000/svg">
<path d="M10 1L7.22 6.27L1 7.11L5.5 11.21L4.44 17L10 14.27L15.56 17L14.5 11.21L19 7.11L12.78 6.27L10 1Z" fill="#FDE82D" stroke="black" stroke-width="0.5" stroke-linecap="round" stroke-linejoin="round"/>
<path d="M31 1L28.22 6.27L22 7.11L26.5 11.21L25.44 17L31 14.27L36.56 17L35.5 11.21L40 7.11L33.78 6.27L31 1Z" fill="#FDE82D" stroke="black" stroke-width="0.5" stroke-linecap="round" stroke-linejoin="round"/>
<path d="M52 1L49.22 6.27L43 7.11L47.5 11.21L46.44 17L52 14.27L57.56 17L56.5 11.21L61 7.11L54.78 6.27L52 1Z" fill="#FDE82D" stroke="black" stroke-width="0.5" stroke-linecap="round" stroke-linejoin="round"/>
<path d="M73 1L70.22 6.27L64 7.11L68.5 11.21L67.44 17L73 14.27L78.56 17L77.5 11.21L82 7.11L75.78 6.27L73 1Z" fill="#FDE82D" stroke="black" stroke-width="0.5" stroke-linecap="round" stroke-linejoin="round"/>
<path d="M94 1L91.22 6.27L85 7.11L89.5 11.21L88.44 17L94 14.27L99.56 17L98.5 11.21L103 7.11L96.78 6.27L94 1Z" fill="#FDE82D" stroke="black" stroke-width="0.5" stroke-linecap="round" stroke-linejoin="round"/>
</svg>
