<svg width="41" height="41" viewBox="0 0 41 41" fill="none" xmlns="http://www.w3.org/2000/svg">
<path d="M17.5723 27.5176L11.3376 21.282L13.0996 19.5202L17.5723 23.9914L27.0304 14.5327L28.7948 16.297L17.5723 27.5176Z" fill="#13840A"/>
<path d="M20.0663 3.31091C16.6136 3.31091 13.2384 4.3347 10.3676 6.2528C7.4968 8.1709 5.25927 10.8972 3.93798 14.0868C2.61669 17.2765 2.27099 20.7864 2.94457 24.1725C3.61816 27.5587 5.28079 30.6691 7.72221 33.1103C10.1636 35.5516 13.2742 37.2141 16.6606 37.8877C20.0469 38.5612 23.5569 38.2155 26.7468 36.8943C29.9367 35.5731 32.6631 33.3357 34.5813 30.4651C36.4996 27.5945 37.5234 24.2195 37.5234 20.767C37.5234 16.1374 35.6842 11.6973 32.4103 8.42368C29.1365 5.15003 24.6962 3.31091 20.0663 3.31091ZM20.0663 35.7294C17.1068 35.7294 14.2138 34.8518 11.7531 33.2078C9.29244 31.5637 7.37456 29.2269 6.24202 26.4929C5.10949 23.7588 4.81317 20.7504 5.39053 17.848C5.96789 14.9456 7.393 12.2795 9.48565 10.187C11.5783 8.09449 14.2445 6.66946 17.1471 6.09214C20.0497 5.51481 23.0583 5.81112 25.7925 6.94358C28.5266 8.07605 30.8636 9.99381 32.5078 12.4544C34.1519 14.9149 35.0295 17.8077 35.0295 20.767C35.0295 24.7353 33.453 28.541 30.6469 31.347C27.8407 34.153 24.0348 35.7294 20.0663 35.7294Z" fill="#13840A"/>
</svg>
